<svg width="148" height="203" viewBox="0 0 148 203" fill="none" xmlns="http://www.w3.org/2000/svg">
<path d="M18.7373 195.781V169.645H18.7733L31.3733 187.537L30.6173 187.429L43.1813 169.645H43.2173V195.781H41.4893V173.713L41.6333 174.577L30.9773 189.589H30.9053L20.1773 174.577L20.4653 173.785V195.781H18.7373ZM50.3543 202.549L59.5343 181.705H61.1903L52.1183 202.549H50.3543ZM53.5223 195.925L46.8623 181.705H48.7703L54.8543 195.025L53.5223 195.925ZM70.7339 170.221C72.3179 170.221 73.6979 170.497 74.8739 171.049C76.0739 171.577 76.9979 172.381 77.6459 173.461C78.3179 174.517 78.6539 175.849 78.6539 177.457C78.6539 178.417 78.4979 179.353 78.1859 180.265C77.8979 181.153 77.4179 181.957 76.7459 182.677C76.0979 183.397 75.2579 183.973 74.2259 184.405C73.2179 184.837 71.9939 185.053 70.5539 185.053H66.5939V195.781H64.8299V170.221H70.7339ZM70.5539 183.361C71.8019 183.361 72.8339 183.169 73.6499 182.785C74.4899 182.377 75.1379 181.873 75.5939 181.273C76.0739 180.649 76.4099 180.001 76.6019 179.329C76.8179 178.657 76.9259 178.033 76.9259 177.457C76.9259 176.641 76.7939 175.897 76.5299 175.225C76.2659 174.553 75.8699 173.977 75.3419 173.497C74.8379 172.993 74.2139 172.609 73.4699 172.345C72.7259 172.057 71.8739 171.913 70.9139 171.913H66.5939V183.361H70.5539ZM82.4595 168.421H84.1515V195.781H82.4595V168.421ZM94.9374 196.069C93.5934 196.069 92.3694 195.769 91.2654 195.169C90.1854 194.545 89.3214 193.681 88.6734 192.577C88.0494 191.473 87.7374 190.189 87.7374 188.725C87.7374 187.165 88.0734 185.833 88.7454 184.729C89.4174 183.601 90.3294 182.749 91.4814 182.173C92.6334 181.573 93.9414 181.273 95.4054 181.273C96.6534 181.273 97.8294 181.645 98.9334 182.389C100.061 183.133 100.865 184.069 101.345 185.197L101.093 185.701L101.309 181.705H102.821V195.781H101.129V191.425L101.489 192.073C101.321 192.553 101.033 193.033 100.625 193.513C100.217 193.969 99.7134 194.401 99.1134 194.809C98.5374 195.193 97.8894 195.505 97.1694 195.745C96.4734 195.961 95.7294 196.069 94.9374 196.069ZM95.2974 194.629C96.3534 194.629 97.3014 194.413 98.1414 193.981C99.0054 193.525 99.7014 192.901 100.229 192.109C100.757 191.317 101.057 190.405 101.129 189.373V187.357C100.937 186.469 100.553 185.677 99.9774 184.981C99.4254 184.285 98.7414 183.733 97.9254 183.325C97.1094 182.917 96.2214 182.713 95.2614 182.713C94.2054 182.713 93.2334 182.965 92.3454 183.469C91.4574 183.949 90.7494 184.633 90.2214 185.521C89.6934 186.409 89.4294 187.453 89.4294 188.653C89.4294 189.757 89.6934 190.765 90.2214 191.677C90.7494 192.565 91.4574 193.285 92.3454 193.837C93.2574 194.365 94.2414 194.629 95.2974 194.629ZM109.251 181.705L109.431 186.133L109.215 185.269C109.623 184.045 110.391 183.085 111.519 182.389C112.671 181.669 113.943 181.309 115.335 181.309C116.655 181.309 117.723 181.705 118.539 182.497C119.355 183.265 119.775 184.273 119.799 185.521V195.781H118.071V185.989C118.047 185.077 117.759 184.321 117.207 183.721C116.655 183.121 115.851 182.809 114.795 182.785C113.859 182.785 112.983 183.013 112.167 183.469C111.351 183.925 110.691 184.561 110.187 185.377C109.707 186.193 109.467 187.141 109.467 188.221V195.781H107.775V181.705H109.251ZM126.161 175.513H127.889V181.885H132.245V183.253H127.889V195.781H126.161V183.253H123.173V181.885H126.161V175.513Z" fill="#006335"/>
<g clip-path="url(#clip0_21_344)">
<path d="M65.4561 165.068C56.3103 162.683 55.2842 160.084 54.9859 138.55C54.8111 125.925 54.9391 123.562 55.829 122.994C57.2263 122.104 64.9237 122.112 64.9237 123.005C64.9237 123.39 63.9551 123.705 62.7712 123.705C59.5829 123.705 56.7757 126.827 56.1375 131.082C55.8565 132.956 55.9778 139.039 56.4072 144.6C57.382 157.226 58.6099 160.257 63.7892 162.824C66.7035 164.269 68.4966 164.563 76.063 164.836C84.1587 165.128 85.1832 165.024 87.9253 163.625C92.1401 161.475 93.9674 157.207 94.9831 147.141C95.4102 142.908 96.0556 138.344 96.4174 136.997C97.0121 134.783 97.0438 134.884 96.7477 138.046C96.5677 139.97 96.0836 145.479 95.672 150.289C94.8004 160.474 93.9165 162.527 89.4201 164.806C86.7143 166.177 85.2757 166.375 78.2427 166.339C72.9155 166.313 68.5675 165.88 65.4561 165.068ZM97.1602 130.283C97.1282 129.027 96.4875 127.558 95.6343 126.785C94.3206 125.595 92.6218 125.411 79.7186 125.069C71.7738 124.858 67.7133 124.622 70.6954 124.544C73.6774 124.467 76.1172 124.153 76.1172 123.847C76.1172 123.187 70.5107 118.855 66.9754 116.784C63.2559 114.604 57.4395 112.781 52.4047 112.218C44.4887 111.333 43.1824 110.46 40.3081 104.132C37.4069 97.7456 36.1368 96.729 27.4956 93.8776C14.9197 89.7278 13.1184 87.7789 11.4236 76.4888C10.8752 72.8351 9.90586 68.7489 9.26968 67.4082C8.15587 65.061 4.87626 61.669 1.30307 59.1684C-0.985372 57.5669 -0.184131 56.9901 3.11413 57.8646C4.59587 58.2574 10.7766 59.2031 16.8492 59.9661C29.4676 61.5515 30.7483 62.1028 35.9454 68.1861C39.7977 72.6953 42.4449 74.0385 48.8331 74.7257C51.3341 74.9948 53.9314 75.4548 54.6047 75.7479C55.7045 76.2267 55.829 75.7857 55.829 71.4133C55.829 65.2581 55.0619 63.0199 50.7675 56.6443C43.1064 45.2707 42.3624 40.7942 46.1532 28.8809C47.8376 23.5876 48.4737 20.0631 48.7997 14.2173L49.2289 6.52176L49.7915 11.7687C50.3735 17.1961 50.1143 18.8577 46.7429 31.31C43.909 41.777 45.0498 47.13 52.2036 56.9349C57.1985 63.7807 58.0656 66.5768 57.5034 74.025C56.8191 83.0897 57.9928 86.3502 64.5824 93.689C67.4855 96.9221 71.6007 102.086 73.7272 105.164L77.5937 110.761L77.1529 106.913C75.585 93.2248 73.7238 80.2137 72.2707 72.7825C70.7715 65.1156 70.244 63.6606 67.4277 59.4243C61.786 50.938 56.8068 37.7952 58.5667 36.0354C58.9849 35.6172 59.3663 35.4954 59.4144 35.7647C59.4626 36.0341 59.5556 36.4906 59.6212 36.7791C59.6868 37.0677 61.0541 39.3046 62.6596 41.7501C69.1553 51.6446 73.4192 67.4728 76.7272 93.9708L77.9499 103.765L78.775 99.6633C79.2287 97.4074 79.4577 95.3313 79.2837 95.0498C79.1097 94.7683 79.5742 92.9408 80.316 90.9887C84.2602 80.6082 84.6398 77.7108 84.8738 56.1928C85.1402 31.6946 84.887 30.2361 79.394 24.7572C77.3994 22.7673 72.6491 19.3067 68.838 17.0669C64.8537 14.7254 59.5471 10.7862 56.3525 7.79855C53.2966 4.94078 50.442 2.72069 50.0089 2.86506C49.5759 3.00943 49.0353 3.89123 48.8077 4.82463C48.4638 6.23496 48.3088 6.00351 47.8907 3.45512C47.6139 1.76843 47.5372 0.238716 47.7201 0.055716C48.2135 -0.437652 51.938 2.36567 57.8315 7.6663C60.7095 10.2548 65.9225 14.0374 69.4158 16.0719C72.9442 18.1268 77.6867 21.6711 80.0857 24.046C86.2024 30.1015 87.0953 33.322 86.0893 45.6989C85.6603 50.9761 85.5932 56.4088 85.9293 58.6414C87.3644 68.1713 86.4156 77.093 82.8884 87.2355C81.9346 89.978 81.2496 92.2218 81.366 92.2218C82.4527 92.2218 87.3928 82.6827 89.8025 75.9312C93.949 64.3133 93.9193 64.347 104.101 59.7078C106.217 58.7436 110.538 55.6617 113.703 52.8593C120.4 46.9294 125.288 43.812 131.082 41.775C135.547 40.2056 147.125 38.4692 147.908 39.2518C148.17 39.5139 145.993 42.2303 143.071 45.2885C136.7 51.9569 135.231 54.6595 133.399 63.0714C131.857 70.1568 129.789 74.2924 126.326 77.2149C124.016 79.1654 116.322 83.1255 114.842 83.1265C113.415 83.1272 109.776 87.9285 109.419 90.283C109.227 91.5417 108.924 94.3416 108.744 96.505C108.122 103.999 104.936 107.88 94.2066 114.211C90.9909 116.108 87.3857 118.391 86.195 119.283C83.493 121.308 82.4641 121.384 84.2288 119.428C84.9618 118.616 88.5292 116.204 92.1565 114.068C95.7838 111.932 100.004 109.054 101.536 107.674C105.003 104.548 107.577 99.1849 107.608 95.0202C107.669 86.9484 110.118 83.3327 117.101 81.0091C122.133 79.3346 127.249 75.2275 129.292 71.2215C130.033 69.7692 131.486 65.5307 132.52 61.8027C134.591 54.3376 137.87 48.5625 142.524 44.1832C144.092 42.7082 145.375 41.2652 145.375 40.9767C145.378 40.1037 140.333 40.3864 135.904 41.5074C129.484 43.1326 122.361 47.0521 116.643 52.107C109.511 58.4118 107.838 59.6399 103.401 61.8262C95.3878 65.7747 93.4425 68.1948 90.8967 77.3815C89.345 82.9811 88.7141 84.3241 85.5162 88.836C79.9274 96.7212 78.7201 101.637 80.5849 108.916C81.9228 114.139 82.004 115.179 80.9948 114.17C80.5993 113.774 79.8106 111.429 79.242 108.958L78.2081 104.465L78.5288 109.116C78.7231 111.936 79.3667 114.617 80.1637 115.928L81.478 118.089L84.483 110.927C88.5473 101.24 93.454 92.1992 98.4755 85.1442C102.842 79.0098 110.75 70.6546 111.49 71.3945C112.17 72.0737 106.794 78.8711 101.909 83.51C96.5688 88.5818 91.4052 97.5281 85.4502 112.027C81.4936 121.659 81.4796 121.681 80.5823 119.547C79.4306 116.808 78.6673 116.784 79.2652 119.506C79.5552 120.826 79.446 121.605 78.9709 121.605C78.5556 121.605 78.2019 120.424 78.1851 118.981C78.1176 113.212 74.1619 106.641 64.0498 95.4985C57.3951 88.1657 55.8288 85.4419 55.8288 81.2017C55.8288 78.9965 55.4751 78.3228 53.797 77.3315C52.6795 76.6714 50.3971 76.1295 48.725 76.1274C43.042 76.1194 40.5108 74.9148 35.5667 69.8616C29.8018 63.9696 27.8662 62.9591 20.6519 62.0764C14.5914 61.3348 8.38258 60.3214 5.45818 59.5963C3.8606 59.2002 3.94031 59.3932 6.37946 61.8257C9.98518 65.4216 10.7673 67.137 12.1285 74.4343C12.7691 77.8687 13.6965 81.6231 14.1894 82.7774C15.8277 86.614 19.529 89.3189 27.0772 92.1959C35.5149 95.4118 36.9201 96.2555 39.5277 99.6716C43.1241 104.383 46.9924 108.41 48.8386 109.365C49.8436 109.885 53.2673 110.957 56.4469 111.749C63.3941 113.478 70.3138 116.987 75.1955 121.258L78.7913 124.403H88.5617H98.3321L98.0103 127.726C97.6009 131.954 97.2312 133.066 97.1602 130.283ZM68.4611 57.4171C67.4054 53.8062 64.3653 46.8519 62.519 43.8243C60.8701 41.1205 60.7257 41.0231 61.149 42.9005C61.9583 46.4891 64.131 51.8373 66.336 55.6681C68.7006 59.7764 69.2936 60.2644 68.4611 57.4171ZM75.4682 118.385C72.8141 113.887 69.1535 109.888 62.9268 104.685C59.6002 101.905 54.2025 97.3868 50.9319 94.6437C43.0749 88.0538 39.0034 85.1652 38.2383 85.638C37.4964 86.0966 30.6437 81.2152 30.6437 80.2281C30.6437 79.231 38.7203 83.6729 43.6201 87.3648C49.8657 92.0707 66.0802 105.948 70.6378 110.489C74.2611 114.098 78.0611 119.894 77.3022 120.653C77.1305 120.825 76.3053 119.804 75.4682 118.385Z" fill="#006335"/>
</g>
<defs>
<clipPath id="clip0_21_344">
<rect width="147.929" height="166.343" fill="white"/>
</clipPath>
</defs>
</svg>
